HIERARCHY
ROOT Hips
{
	OFFSET 0.000000 0.000000 0.000000
	CHANNELS 6 Xposition Yposition Zposition Zrotation Yrotation Xrotation 
	JOINT LowerBack
	{
		OFFSET 0.000000 0.000000 0.000000
		CHANNELS 3 Zrotation Yrotation Xrotation
		JOINT Spine
		{
			OFFSET 0.028270 2.035590 -0.193380
			CHANNELS 3 Zrotation Yrotation Xrotation
			JOINT Spine1
			{
				OFFSET 0.056720 2.048850 -0.042750
				CHANNELS 3 Zrotation Yrotation Xrotation
				JOINT Neck
				{
					OFFSET 0.000000 0.000000 0.000000
					CHANNELS 3 Zrotation Yrotation Xrotation
					JOINT Neck1
					{
						OFFSET -0.054170 1.746240 0.172020
						CHANNELS 3 Zrotation Yrotation Xrotation
						JOINT Head
						{
							OFFSET 0.104070 1.761360 -0.123970
							CHANNELS 3 Zrotation Yrotation Xrotation
							End Site
							{
								OFFSET 0.000000 0.000000 0.000000
							}
						}
					}
				}
				JOINT LeftShoulder
				{
					OFFSET 0.000000 0.000000 0.000000
					CHANNELS 3 Zrotation Yrotation Xrotation
					JOINT LeftArm
					{
						OFFSET 3.362410 1.200890 -0.311210
						CHANNELS 3 Zrotation Yrotation Xrotation
						JOINT LeftForeArm
						{
							OFFSET 4.983000 -0.000000 -0.000000
							CHANNELS 3 Zrotation Yrotation Xrotation
							JOINT LeftHand
							{
								OFFSET 3.483560 -0.000000 -0.000000
								CHANNELS 3 Zrotation Yrotation Xrotation
								JOINT LeftFingerBase
								{
									OFFSET 0.000000 0.000000 0.000000
									CHANNELS 3 Zrotation Yrotation Xrotation
									JOINT LeftHandIndex1
									{
										OFFSET 0.715260 -0.000000 -0.000000
										CHANNELS 3 Zrotation Yrotation Xrotation
										End Site
										{
											OFFSET 0.000000 0.000000 0.000000
										}
									}
								}
								JOINT LThumb
								{
									OFFSET 0.000000 0.000000 0.000000
									CHANNELS 3 Zrotation Yrotation Xrotation
									End Site
									{
										OFFSET 0.000000 0.000000 0.000000
									}
								}
							}
						}
					}
				}
				JOINT RightShoulder
				{
					OFFSET 0.000000 0.000000 0.000000
					CHANNELS 3 Zrotation Yrotation Xrotation
					JOINT RightArm
					{
						OFFSET -3.136600 1.374050 -0.404650
						CHANNELS 3 Zrotation Yrotation Xrotation
						JOINT RightForeArm
						{
							OFFSET -5.241900 -0.000000 -0.000000
							CHANNELS 3 Zrotation Yrotation Xrotation
							JOINT RightHand
							{
								OFFSET -3.444170 -0.000000 -0.000000
								CHANNELS 3 Zrotation Yrotation Xrotation
								JOINT RightFingerBase
								{
									OFFSET 0.000000 0.000000 0.000000
									CHANNELS 3 Zrotation Yrotation Xrotation
									JOINT RightHandIndex1
									{
										OFFSET -0.622530 -0.000000 -0.000000
										CHANNELS 3 Zrotation Yrotation Xrotation
										End Site
										{
											OFFSET 0.000000 0.000000 0.000000
										}
									}
								}
								JOINT RThumb
								{
									OFFSET 0.000000 0.000000 0.000000
									CHANNELS 3 Zrotation Yrotation Xrotation
									End Site
									{
										OFFSET 0.000000 0.000000 0.000000
									}
								}
							}
						}
					}
				}
			}
		}
	}
}
}
MOTION
Frames: 12
Frame Time: 0.008333
4.830066 17.361404 1.347299 9.570455 -78.012958 10.119618 -0.729238 -1.884984 4.029068 -0.073624 -1.745186 -2.234536 -3.137631 -1.725755 -0.638181 9.127138 -8.824240 -0.826151 -3.018449 -0.287822 1.676954 0.000000 0.000000 0.000000 5.598575 -2.135504 -1.881524 -83.738424 -9.575556 34.664115 -179.674198 -74.480348 179.948851 5.564309 -0.493891 -0.050993 -0.101525 0.592211 -0.000000 0.000000 0.000000 0.000000 0.000000 0.000000 0.000000 9.368115 -8.191081 2.181957 51.384525 21.204984 46.296927 179.813489 87.709906 179.978805 -6.584259 1.852000 -0.125598 0.241374 -0.291241 -0.000000 0.000000 0.000000 0.000000 0.000000 0.000000 0.000000 
4.826011 17.361951 1.334563 9.217636 -77.264382 10.109029 -0.937371 -1.787121 3.959307 -0.091474 -1.636650 -2.232437 -2.988118 -1.621575 -0.585338 8.952330 -8.549403 -0.764433 -2.989598 -0.287003 1.695741 0.000000 0.000000 0.000000 5.634887 -2.067820 -1.901615 -83.774371 -9.909255 35.202538 -179.680678 -74.467649 179.949583 5.468975 -0.485835 -0.049834 -0.098267 0.593560 -0.000000 0.000000 0.000000 0.000000 0.000000 0.000000 0.000000 9.252146 -7.875475 2.343321 49.805607 22.357685 46.665939 179.825640 87.860278 179.979127 -6.576152 1.728958 -0.117723 0.242309 -0.284052 -0.000000 0.000000 0.000000 0.000000 0.000000 0.000000 0.000000 
4.821199 17.362318 1.321352 8.915623 -76.529055 10.042991 -1.148759 -1.689225 3.874801 -0.108506 -1.527653 -2.230652 -2.831509 -1.517127 -0.525976 8.747019 -8.275988 -0.712142 -2.951839 -0.285584 1.712350 0.000000 0.000000 0.000000 5.668232 -1.967131 -1.920360 -83.787445 -10.271242 35.738447 -179.686731 -74.458792 179.950254 5.382813 -0.471324 -0.048375 -0.095443 0.594466 -0.000000 0.000000 0.000000 0.000000 0.000000 0.000000 0.000000 9.068633 -7.549453 2.503110 48.179035 23.542419 46.985659 179.836593 87.978647 179.979528 -6.548633 1.638241 -0.111556 0.242151 -0.277742 -0.000000 0.000000 0.000000 0.000000 0.000000 0.000000 0.000000 
4.815406 17.362612 1.307833 8.653906 -75.802431 9.937945 -1.362870 -1.593441 3.772161 -0.124632 -1.420341 -2.232064 -2.668020 -1.414742 -0.468746 8.516167 -7.994597 -0.662399 -2.908077 -0.283838 1.728852 0.000000 0.000000 0.000000 5.705983 -1.867863 -1.939579 -83.783129 -10.620457 36.239081 -179.695580 -74.437114 179.950840 5.307552 -0.453646 -0.046918 -0.092516 0.595040 -0.000000 0.000000 0.000000 0.000000 0.000000 0.000000 0.000000 8.834172 -7.207631 2.665037 46.474533 24.746489 47.240487 179.845579 88.057147 179.980117 -6.468374 1.568083 -0.105699 0.240233 -0.272071 -0.000000 0.000000 0.000000 0.000000 0.000000 0.000000 0.000000 
4.808798 17.362776 1.294060 8.427483 -75.082841 9.797792 -1.575843 -1.500315 3.654599 -0.139011 -1.315389 -2.235430 -2.497252 -1.315041 -0.411043 8.255460 -7.711303 -0.618650 -2.857008 -0.281634 1.744230 0.000000 0.000000 0.000000 5.743001 -1.759182 -1.959067 -83.759908 -10.970580 36.713124 -179.706426 -74.409755 179.951317 5.246112 -0.431008 -0.045263 -0.089770 0.595173 -0.000000 0.000000 0.000000 0.000000 0.000000 0.000000 0.000000 8.539726 -6.855897 2.827278 44.692839 25.969660 47.419446 179.853497 88.114066 179.980961 -6.315255 1.525460 -0.100557 0.235972 -0.267065 -0.000000 0.000000 0.000000 0.000000 0.000000 0.000000 0.000000 
4.801393 17.362814 1.280164 8.231352 -74.366648 9.628274 -1.783919 -1.410810 3.523949 -0.150888 -1.213935 -2.240191 -2.319355 -1.219124 -0.351783 7.962433 -7.430977 -0.583168 -2.798395 -0.278925 1.757832 0.000000 0.000000 0.000000 5.775395 -1.636626 -1.978809 -83.716403 -11.327412 37.163807 -179.718830 -74.376854 179.951672 5.200327 -0.402169 -0.043508 -0.087370 0.594807 -0.000000 0.000000 0.000000 0.000000 0.000000 0.000000 0.000000 8.182209 -6.500172 2.988423 42.828519 27.210992 47.510738 179.861179 88.166129 179.982177 -6.073337 1.511541 -0.095733 0.228911 -0.262652 -0.000000 0.000000 0.000000 0.000000 0.000000 0.000000 0.000000 
4.793297 17.362695 1.266201 8.061360 -73.650857 9.433910 -1.983801 -1.325659 3.382612 -0.159746 -1.116881 -2.246414 -2.135134 -1.127843 -0.292840 7.636485 -7.154521 -0.555796 -2.732666 -0.275731 1.769689 0.000000 0.000000 0.000000 5.801297 -1.503553 -1.998690 -83.651917 -11.688533 37.589521 -179.732847 -74.335300 179.951902 5.170201 -0.367815 -0.041654 -0.085313 0.593957 -0.000000 0.000000 0.000000 0.000000 0.000000 0.000000 0.000000 7.762153 -6.142387 3.146947 40.872240 28.461125 47.500089 179.869167 88.227102 179.983702 -5.734798 1.522451 -0.090727 0.218772 -0.258705 -0.000000 0.000000 0.000000 0.000000 0.000000 0.000000 0.000000 
4.784561 17.362455 1.252273 7.913864 -72.930782 9.218182 -2.171738 -1.245736 3.233669 -0.165071 -1.025305 -2.253947 -1.946022 -1.042184 -0.235682 7.277110 -6.883726 -0.537097 -2.659984 -0.272048 1.779624 0.000000 0.000000 0.000000 5.816878 -1.359785 -2.017857 -83.563352 -12.055635 37.992593 -179.748022 -74.285729 179.952022 5.154685 -0.328157 -0.039701 -0.083646 0.592610 -0.000000 0.000000 0.000000 0.000000 0.000000 0.000000 0.000000 7.278890 -5.784818 3.299947 38.818568 29.708740 47.374801 179.878170 88.313267 179.985506 -5.304038 1.552923 -0.085240 0.205554 -0.255090 -0.000000 0.000000 0.000000 0.000000 0.000000 0.000000 0.000000 
4.775117 17.362129 1.238463 7.785454 -72.202484 8.987689 -2.345736 -1.171523 3.077971 -0.166873 -0.939839 -2.264048 -1.754236 -0.962682 -0.185513 6.888184 -6.613288 -0.523891 -2.581915 -0.268008 1.788532 0.000000 0.000000 0.000000 5.823611 -1.215826 -2.035634 -83.450305 -12.418649 38.368454 -179.764628 -74.220978 179.952042 5.151805 -0.285969 -0.037748 -0.082245 0.590893 -0.000000 0.000000 0.000000 0.000000 0.000000 0.000000 0.000000 6.740754 -5.423000 3.444727 36.655551 30.928210 47.119670 179.888281 88.430727 179.987491 -4.792531 1.588093 -0.078370 0.189490 -0.251573 -0.000000 0.000000 0.000000 0.000000 0.000000 0.000000 0.000000 
4.765155 17.361651 1.224738 7.678404 -71.466195 8.740416 -2.501122 -1.102158 2.919848 -0.164358 -0.859954 -2.274678 -1.560816 -0.888635 -0.137208 6.462595 -6.359416 -0.523308 -2.495966 -0.263353 1.794332 0.000000 0.000000 0.000000 5.808474 -1.047205 -2.050010 -83.305817 -12.806921 38.738834 -179.779715 -74.147860 179.952005 5.158544 -0.239647 -0.035595 -0.081525 0.588712 -0.000000 0.000000 0.000000 0.000000 0.000000 0.000000 0.000000 6.128491 -5.070682 3.574537 34.407508 32.121042 46.737613 179.900784 88.615356 179.989508 -4.239532 1.630151 -0.070812 0.171414 -0.248166 -0.000000 0.000000 0.000000 0.000000 0.000000 0.000000 0.000000 
4.754661 17.361039 1.211189 7.591398 -70.719970 8.481057 -2.635857 -1.037220 2.761010 -0.157513 -0.785418 -2.285961 -1.368075 -0.819679 -0.092124 6.001776 -6.127024 -0.536166 -2.402454 -0.258083 1.796769 0.000000 0.000000 0.000000 5.767831 -0.852293 -2.059610 -83.127264 -13.224148 39.108134 -179.792205 -74.064003 179.951944 5.171360 -0.191406 -0.033441 -0.081528 0.586150 0.000000 0.000000 0.000000 0.000000 0.000000 0.000000 0.000000 5.442598 -4.732163 3.684906 32.081035 33.271830 46.225725 179.915676 88.883171 179.991400 -3.681526 1.666937 -0.062658 0.152248 -0.244734 -0.000000 0.000000 0.000000 0.000000 0.000000 0.000000 0.000000 
4.743621 17.360418 1.197853 7.520049 -69.961680 8.218002 -2.752119 -0.975603 2.600580 -0.147488 -0.715059 -2.301299 -1.179267 -0.754511 -0.062343 5.517478 -5.896024 -0.552082 -2.304257 -0.252512 1.798782 0.000000 0.000000 0.000000 5.711063 -0.661279 -2.063625 -82.918080 -13.640919 39.459388 -179.803633 -73.959604 179.951888 5.185436 -0.145709 -0.031287 -0.081772 0.583443 -0.000000 0.000000 0.000000 0.000000 0.000000 0.000000 0.000000 4.702456 -4.385948 3.774242 29.669412 34.321645 45.571514 179.931550 89.221064 179.993061 -3.140370 1.670345 -0.053404 0.132731 -0.240983 0.000000 0.000000 0.000000 0.000000 0.000000 0.000000 0.000000 
